PathFileType	4	(X/Y/Z)	 s04c0001.trc
DataRate	CameraRate	NumFrames	NumMarkers	Units	OrigDataRate	OrigDataStartFrame	OrigNumFrames
200	200	5	49	mm	200	1251	2000
Frame#	Time	racr			lacr			c7			jug			rlel			rdr			llel			ldr			s2			lic			ric			lasi			rasi			rpsi			lpsi			rgt			lgt			rth1			rth2			rth3			rth4			rlfc			rmfc			rsh1			rsh2			rsh3			rsh4			rlmal			rmmal			rcal			rtoe			rmt5			rmt1			lth1			lth2			lth4			lth3			llfc			lmfc			lsh1			lsh2			lsh3			lsh4			llmal			lmmal			lcal			ltoe			lmt1			lmt5			
		X1	Y1	Z1	X2	Y2	Z2	X3	Y3	Z3	X4	Y4	Z4	X5	Y5	Z5	X6	Y6	Z6	X7	Y7	Z7	X8	Y8	Z8	X9	Y9	Z9	X10	Y10	Z10	X11	Y11	Z11	X12	Y12	Z12	X13	Y13	Z13	X14	Y14	Z14	X15	Y15	Z15	X16	Y16	Z16	X17	Y17	Z17	X18	Y18	Z18	X19	Y19	Z19	X20	Y20	Z20	X21	Y21	Z21	X22	Y22	Z22	X23	Y23	Z23	X24	Y24	Z24	X25	Y25	Z25	X26	Y26	Z26	X27	Y27	Z27	X28	Y28	Z28	X29	Y29	Z29	X30	Y30	Z30	X31	Y31	Z31	X32	Y32	Z32	X33	Y33	Z33	X34	Y34	Z34	X35	Y35	Z35	X36	Y36	Z36	X37	Y37	Z37	X38	Y38	Z38	X39	Y39	Z39	X40	Y40	Z40	X41	Y41	Z41	X42	Y42	Z42	X43	Y43	Z43	X44	Y44	Z44	X45	Y45	Z45	X46	Y46	Z46	X47	Y47	Z47	X48	Y48	Z48	X49	Y49	Z49	
1251	6.2550	187.993014	1566.149193	287.880620	210.628850	1562.601766	-79.388823	130.584038	1591.767882	89.007331	267.176223	1531.537737	101.331441	109.491153	1228.326398	387.978173	221.196957	985.283428	496.546182	166.305029	1247.308928	-191.543819	299.567580	984.799558	-269.696608	74.316353	1054.109381	99.778855	247.611528	1112.530315	-48.245546	213.543100	1100.484182	274.429855	294.778120	1056.604231	5.423408	277.416372	1059.338650	232.323773	90.362303	1089.333930	143.542234	92.079645	1085.205418	64.653897	175.777034	1000.449719	278.258426	197.396692	955.719945	-66.677944	189.227963	865.060019	299.798221	202.969403	778.363843	289.739840	175.010116	698.445161	280.044441	238.788723	777.308540	279.515133	158.665201	547.825583	249.765069	165.676540	525.413993	139.608148	108.999903	426.071953	268.145105	124.143746	336.382544	259.860195	90.557775	257.445038	243.005969	160.292699	335.286033	245.758231	89.419981	103.645207	231.406596	138.948077	111.346931	159.242690	48.291360	68.393574	167.986439	314.169693	83.134585	304.789367	232.282330	52.699278	326.684649	279.499895	49.768644	227.747614	200.162123	862.266813	-80.066968	218.773611	777.239357	-77.984022	254.034388	775.600383	-67.842511	191.776658	692.509723	-72.486695	169.478927	552.034215	-53.860742	194.800818	521.941330	50.702839	151.837964	423.978423	-80.362851	173.481799	340.008176	-67.966234	149.269535	254.299035	-67.600354	202.716866	341.141916	-41.725815	146.909102	104.799707	-63.830204	154.848846	100.193739	22.023920	80.143785	77.352884	-14.538567	377.002657	82.848987	-57.727301	312.872638	54.978941	0.022470	302.246413	43.130176	-110.988526	
1252	6.2600	188.072778	1566.174691	287.819987	210.779612	1562.520899	-79.461757	130.728383	1591.777760	88.880325	267.276238	1531.504816	101.272138	109.417460	1228.410333	387.908112	221.010348	985.331246	496.542787	166.453563	1247.188732	-191.484116	299.673903	984.626373	-269.513421	74.322355	1054.127991	99.735720	247.704338	1112.515060	-48.214211	213.535864	1100.481880	274.435357	294.851350	1056.585353	5.474134	277.385224	1059.343532	232.357955	90.391629	1089.333052	143.481228	92.121150	1085.223216	64.604803	175.721447	1000.455260	278.251476	197.477062	955.720841	-66.675594	189.169980	865.060702	299.793730	202.913402	778.355934	289.744547	174.959452	698.442425	280.064159	238.755299	777.277558	279.518846	158.637163	547.830098	249.760778	165.640737	525.412715	139.594289	108.970270	426.047529	268.141588	124.138763	336.406306	259.869014	90.554499	257.438127	242.998202	160.275454	335.301741	245.744161	89.406660	103.647197	231.416395	138.960082	111.362558	159.254104	48.298718	68.399264	167.979517	314.183802	83.140010	304.808738	232.277152	52.715076	326.687471	279.503011	49.772261	227.740324	200.219239	862.272662	-80.069476	218.818858	777.241421	-77.975991	254.072156	775.577029	-67.796317	191.819761	692.504840	-72.478644	169.478628	552.037999	-53.858008	194.760010	521.930214	50.704430	151.839856	423.990071	-80.372414	173.500045	340.014702	-67.942611	149.282210	254.301787	-67.597014	202.732346	341.149437	-41.711747	146.916897	104.802551	-63.829929	154.857397	100.204355	22.007317	80.140996	77.362332	-14.551623	376.995223	82.849572	-57.744617	312.881010	54.975879	0.040059	302.257417	43.129545	-110.981402	
1253	6.2650	188.163383	1566.222152	287.743802	210.942438	1562.457986	-79.528640	130.828619	1591.790011	88.814285	267.381083	1531.496497	101.224590	109.343511	1228.469736	387.873430	220.841819	985.386273	496.561145	166.589689	1247.076102	-191.432032	299.753533	984.481330	-269.330409	74.343898	1054.139563	99.666399	247.805493	1112.472300	-48.184499	213.503049	1100.488239	274.433316	294.909021	1056.559896	5.501600	277.379973	1059.353933	232.405359	90.390669	1089.360574	143.418601	92.155087	1085.243092	64.563247	175.649611	1000.463927	278.245098	197.551439	955.718963	-66.668995	189.092069	865.073537	299.790051	202.856444	778.341540	289.750966	174.909833	698.446259	280.066932	238.679453	777.297555	279.561047	158.612452	547.821512	249.758930	165.618267	525.411359	139.604944	108.942524	426.061417	268.133395	124.081159	336.399267	259.863355	90.526737	257.452732	242.994470	160.250182	335.301315	245.759759	89.427169	103.655352	231.418133	138.972611	111.351212	159.250442	48.304299	68.397405	167.985655	314.178246	83.141864	304.804937	232.260971	52.713534	326.688246	279.510596	49.779081	227.749879	200.283731	862.272549	-80.071360	218.851186	777.239683	-77.967040	254.116945	775.586540	-67.789757	191.862225	692.509949	-72.487931	169.492374	552.035100	-53.861176	194.737988	521.922089	50.706701	151.848161	423.985051	-80.367328	173.503863	340.024145	-67.961009	149.287561	254.306253	-67.599016	202.730479	341.157409	-41.715001	146.902115	104.828314	-63.837677	154.837921	100.213944	22.023079	80.157105	77.337796	-14.539003	376.986634	82.857112	-57.728506	312.876301	54.969185	0.022349	302.248296	43.130140	-111.001741	
1254	6.2700	188.222276	1566.270445	287.663079	211.063327	1562.371722	-79.581309	130.944529	1591.800823	88.705182	267.456203	1531.470765	101.202546	109.277848	1228.521324	387.803226	220.690196	985.434428	496.573027	166.713095	1246.955169	-191.392942	299.826375	984.296190	-269.146987	74.361874	1054.155015	99.610220	247.895436	1112.464059	-48.155274	213.456149	1100.519396	274.450838	294.994491	1056.541464	5.560588	277.339925	1059.343145	232.417547	90.415723	1089.371683	143.381503	92.216016	1085.250804	64.504905	175.596655	1000.457336	278.229427	197.635604	955.710374	-66.665871	189.045993	865.075949	299.788104	202.796584	778.342489	289.756105	174.871836	698.442949	280.077756	238.618929	777.314994	279.579296	158.549081	547.829853	249.755325	165.602171	525.411492	139.615434	108.913348	426.066353	268.129644	124.073662	336.420043	259.863431	90.508749	257.457470	243.005086	160.224244	335.307209	245.751571	89.412206	103.645926	231.409032	138.960613	111.352318	159.242404	48.298958	68.399463	167.980055	314.152599	83.143782	304.789748	232.269573	52.714145	326.698714	279.499875	49.769776	227.745565	200.354562	862.269626	-80.075735	218.915842	777.236207	-77.949141	254.161370	775.553685	-67.756023	191.885376	692.508576	-72.484565	169.503188	552.022098	-53.869699	194.723873	521.917389	50.697075	151.843747	423.991547	-80.379968	173.489026	340.023025	-67.965836	149.292706	254.317235	-67.614214	202.721809	341.153558	-41.714165	146.929167	104.801373	-63.833741	154.838360	100.213670	22.022761	80.147016	77.346206	-14.546151	376.982255	82.851995	-57.720058	312.885040	54.974331	0.026884	302.232244	43.121669	-110.990722	
1255	6.2750	188.299199	1566.294934	287.600676	211.218412	1562.292965	-79.639874	131.031677	1591.825783	88.652312	267.565761	1531.446517	101.167017	109.227457	1228.582083	387.740032	220.515363	985.514847	496.619586	166.835994	1246.834093	-191.345057	299.910031	984.131415	-268.986777	74.370207	1054.160964	99.543137	248.020201	1112.451097	-48.122446	213.407617	1100.524759	274.451881	295.078125	1056.527139	5.611598	277.344199	1059.361490	232.476012	90.459021	1089.371000	143.335279	92.255264	1085.271691	64.453193	175.565486	1000.461148	278.219734	197.745166	955.688292	-66.650470	188.980314	865.078528	299.791724	202.737906	778.334935	289.765344	174.808936	698.438253	280.069931	238.581130	777.313738	279.609101	158.527025	547.832490	249.753750	165.585893	525.413145	139.613883	108.871330	426.078092	268.131153	124.076938	336.408254	259.864605	90.509685	257.449661	242.994886	160.211648	335.312587	245.772229	89.421216	103.635029	231.410531	138.951055	111.358095	159.245384	48.294717	68.389556	167.979151	314.175875	83.137393	304.807163	232.272648	52.714509	326.683752	279.492482	49.780947	227.749459	200.421206	862.253240	-80.068821	218.954655	777.218097	-77.940669	254.223562	775.546859	-67.736885	191.935384	692.511584	-72.471066	169.522689	552.043497	-53.859373	194.689312	521.918929	50.687254	151.841803	423.984666	-80.390983	173.497577	340.022359	-67.958196	149.291527	254.311066	-67.614353	202.713171	341.164491	-41.710615	146.928698	104.803690	-63.848794	154.841736	100.221922	22.020573	80.145852	77.358711	-14.524292	377.002847	82.852572	-57.733874	312.885655	54.974148	0.022828	302.245844	43.127073	-110.986511	
